<svg width="471" height="471" viewBox="0 0 471 471" fill="none" xmlns="http://www.w3.org/2000/svg">
<rect width="471" height="471" rx="99" fill="#00091B"/>
<g clip-path="url(#clip0_7_32)">
<path fill-rule="evenodd" clip-rule="evenodd" d="M236 35C164.3 35 106.225 93.0741 106.225 164.775C106.225 222.2 143.373 270.703 194.959 287.898C201.448 289.034 203.881 285.14 203.881 281.734C203.881 278.652 203.719 268.432 203.719 257.563C171.113 263.565 162.677 249.615 160.082 242.315C158.622 238.584 152.295 227.066 146.78 223.984C142.238 221.551 135.749 215.549 146.618 215.387C156.838 215.224 164.137 224.795 166.571 228.689C178.25 248.317 196.905 242.802 204.367 239.395C205.503 230.96 208.91 225.282 212.641 222.038C183.766 218.793 153.593 207.6 153.593 157.961C153.593 143.848 158.622 132.169 166.895 123.084C165.597 119.84 161.055 106.538 168.193 88.6942C168.193 88.6942 179.061 85.2876 203.881 101.996C214.263 99.0762 225.294 97.6162 236.324 97.6162C247.355 97.6162 258.386 99.0762 268.768 101.996C293.587 85.1254 304.456 88.6942 304.456 88.6942C311.594 106.538 307.052 119.84 305.754 123.084C314.027 132.169 319.056 143.686 319.056 157.961C319.056 207.762 288.721 218.793 259.846 222.038C264.55 226.093 268.606 233.88 268.606 246.046C268.606 263.403 268.444 277.354 268.444 281.734C268.444 285.14 270.877 289.196 277.366 287.898C328.627 270.703 365.775 222.038 365.775 164.775C365.775 93.0741 307.7 35 236 35Z" fill="white"/>
</g>
<path d="M146.236 413.134C142.176 413.134 138.841 411.684 136.231 408.784C133.717 405.884 132.509 401.824 132.606 396.604L132.751 380.509C132.847 375.289 132.557 371.325 131.881 368.619C131.204 365.912 129.947 364.075 128.111 363.109C126.274 362.142 123.567 361.659 119.991 361.659C117.864 361.659 116.269 362.045 115.206 362.819C114.239 363.592 113.562 364.8 113.176 366.444L104.766 401.679C104.282 403.709 104.331 405.11 104.911 405.884C105.491 406.657 106.989 407.237 109.406 407.624L115.786 408.494C117.139 408.59 117.816 409.122 117.816 410.089C117.816 411.249 117.042 411.829 115.496 411.829H84.7555C83.4022 411.829 82.7255 411.345 82.7255 410.379C82.7255 409.315 83.6922 408.639 85.6255 408.349L88.5255 407.914C90.6522 407.624 92.1022 407.14 92.8755 406.464C93.7455 405.69 94.3738 404.289 94.7605 402.259L114.481 316.999C114.964 314.969 114.964 313.615 114.481 312.939C113.997 312.262 112.789 311.73 110.856 311.344L107.956 310.764C106.699 310.474 106.071 309.942 106.071 309.169C106.071 308.009 106.941 307.429 108.681 307.429H138.116C143.819 307.429 148.556 308.444 152.326 310.474C156.096 312.504 158.899 315.21 160.736 318.594C162.669 321.977 163.636 325.699 163.636 329.759C163.636 334.882 162.331 339.522 159.721 343.679C157.111 347.835 153.679 351.364 149.426 354.264C145.269 357.067 140.774 359.145 135.941 360.499C135.361 360.595 135.022 360.885 134.926 361.369C134.926 361.755 135.216 362.094 135.796 362.384C138.502 363.834 140.339 365.864 141.306 368.474C142.272 371.084 142.756 374.564 142.756 378.914V393.704C142.756 399.02 143.336 402.694 144.496 404.724C145.656 406.657 147.251 407.624 149.281 407.624C150.054 407.624 150.731 407.527 151.311 407.334C151.891 407.044 152.664 406.56 153.631 405.884C154.404 405.207 155.081 405.014 155.661 405.304C156.337 405.594 156.676 406.125 156.676 406.899C156.676 408.252 155.661 409.654 153.631 411.104C151.601 412.457 149.136 413.134 146.236 413.134ZM125.066 358.034C129.899 358.034 134.442 356.729 138.696 354.119C142.949 351.509 146.381 347.98 148.991 343.534C151.697 339.087 153.051 334.109 153.051 328.599C153.051 323.185 151.697 318.932 148.991 315.839C146.381 312.649 141.789 311.054 135.216 311.054C129.029 311.054 125.452 312.987 124.486 316.854L116.801 350.059C115.544 355.375 118.299 358.034 125.066 358.034ZM175.259 413.134C170.136 413.134 166.028 411.152 162.934 407.189C159.841 403.129 158.294 397.425 158.294 390.079C158.294 383.699 159.406 377.367 161.629 371.084C163.949 364.8 166.946 359.097 170.619 353.974C174.293 348.85 178.304 344.742 182.654 341.649C187.101 338.555 191.403 337.009 195.559 337.009C200.103 337.009 203.341 338.12 205.274 340.344C207.304 342.47 208.319 345.37 208.319 349.044C208.319 353.394 206.773 357.744 203.679 362.094C200.683 366.347 196.429 370.165 190.919 373.549C185.506 376.932 179.126 379.445 171.779 381.089C169.653 381.572 168.541 382.78 168.444 384.714C168.348 385.39 168.299 386.115 168.299 386.889C168.299 387.565 168.299 388.242 168.299 388.919C168.299 394.429 169.218 398.585 171.054 401.389C172.988 404.192 175.598 405.594 178.884 405.594C182.558 405.594 186.086 403.902 189.469 400.519C192.949 397.135 195.849 392.35 198.169 386.164C198.459 385.294 199.039 384.859 199.909 384.859C200.489 384.859 200.828 385.1 200.924 385.584C201.118 386.067 201.118 386.647 200.924 387.324C197.831 395.83 194.061 402.259 189.614 406.609C185.264 410.959 180.479 413.134 175.259 413.134ZM169.894 375.579C169.701 376.255 169.798 376.835 170.184 377.319C170.668 377.705 171.248 377.802 171.924 377.609C177.918 375.965 182.944 373.5 187.004 370.214C191.064 366.83 194.109 363.06 196.139 358.904C198.266 354.747 199.329 350.687 199.329 346.724C199.329 342.664 197.734 340.634 194.544 340.634C191.741 340.634 188.696 342.277 185.409 345.564C182.123 348.85 179.078 353.152 176.274 358.469C173.471 363.785 171.344 369.489 169.894 375.579ZM224.654 413.134C219.338 413.134 214.939 410.959 211.459 406.609C207.979 402.162 206.239 396.507 206.239 389.644C206.239 383.167 207.254 376.835 209.284 370.649C211.411 364.365 214.214 358.71 217.694 353.684C221.271 348.56 225.186 344.5 229.439 341.504C233.789 338.507 238.139 337.009 242.489 337.009C247.129 337.009 251.044 338.265 254.234 340.779C254.718 341.165 255.008 341.504 255.104 341.794C255.201 341.987 255.153 342.47 254.959 343.244L251.044 362.239C250.754 363.592 250.126 364.269 249.159 364.269C248.096 364.269 247.468 363.544 247.274 362.094L246.549 351.799C246.259 347.352 245.583 344.452 244.519 343.099C243.553 341.745 242.103 341.069 240.169 341.069C237.463 341.069 234.708 342.422 231.904 345.129C229.101 347.739 226.491 351.315 224.074 355.859C221.754 360.305 219.869 365.284 218.419 370.794C217.066 376.207 216.389 381.717 216.389 387.324C216.389 399.504 220.353 405.594 228.279 405.594C232.049 405.594 235.433 403.854 238.429 400.374C241.523 396.894 244.374 391.48 246.984 384.134C247.274 383.167 247.951 382.684 249.014 382.684C249.594 382.684 249.933 382.925 250.029 383.409C250.126 383.795 250.029 384.617 249.739 385.874C248.773 391.19 247.033 395.879 244.519 399.939C242.006 403.999 239.009 407.237 235.529 409.654C232.146 411.974 228.521 413.134 224.654 413.134ZM264.904 413.134C261.424 413.134 258.718 411.635 256.784 408.639C254.851 405.642 253.884 401.244 253.884 395.444C253.884 389.934 254.658 384.424 256.204 378.914C257.751 373.307 259.878 367.99 262.584 362.964C265.291 357.937 268.336 353.49 271.719 349.624C275.199 345.757 278.824 342.712 282.594 340.489C286.461 338.169 290.279 337.009 294.049 337.009C295.886 337.009 297.626 337.395 299.269 338.169C300.913 338.845 302.266 339.957 303.329 341.504C303.909 342.374 304.489 342.809 305.069 342.809C305.649 342.809 306.229 342.374 306.809 341.504C307.873 339.957 308.743 338.99 309.419 338.604C310.096 338.12 310.724 337.879 311.304 337.879C312.561 337.879 313.044 338.555 312.754 339.909L299.849 395.444C298.399 401.727 299.366 404.869 302.749 404.869C304.973 404.869 306.954 403.37 308.694 400.374C310.531 397.377 312.368 392.737 314.204 386.454C314.494 385.39 315.123 384.859 316.089 384.859C316.766 384.859 317.201 385.149 317.394 385.729C317.588 386.309 317.588 386.985 317.394 387.759C315.558 396.845 313.093 403.37 309.999 407.334C306.906 411.2 303.184 413.134 298.834 413.134C295.064 413.134 292.358 411.539 290.714 408.349C289.168 405.159 289.023 400.809 290.279 395.299L292.164 387.324C292.358 386.647 292.213 386.26 291.729 386.164C291.343 386.067 291.004 386.309 290.714 386.889C285.398 396.652 280.661 403.467 276.504 407.334C272.444 411.2 268.578 413.134 264.904 413.134ZM268.529 405.739C270.849 405.739 273.411 404.337 276.214 401.534C279.018 398.73 281.773 395.105 284.479 390.659C287.283 386.212 289.844 381.427 292.164 376.304C294.484 371.18 296.321 366.25 297.674 361.514C299.124 356.777 299.849 352.765 299.849 349.479C299.849 343.582 297.771 340.634 293.614 340.634C291.101 340.634 288.443 341.794 285.639 344.114C282.836 346.337 280.129 349.382 277.519 353.249C275.006 357.115 272.686 361.514 270.559 366.444C268.529 371.277 266.886 376.352 265.629 381.669C264.373 386.889 263.744 392.012 263.744 397.039C263.744 400.422 264.131 402.742 264.904 403.999C265.774 405.159 266.983 405.739 268.529 405.739ZM306.756 441.554C305.5 441.554 304.871 441.022 304.871 439.959C304.871 438.992 305.645 438.412 307.191 438.219L309.221 437.929C311.155 437.639 312.605 437.059 313.571 436.189C314.441 435.415 315.118 433.965 315.601 431.839L334.886 348.609C335.08 347.835 334.935 347.255 334.451 346.869C334.065 346.385 333.485 346.385 332.711 346.869C331.745 347.352 330.826 347.884 329.956 348.464C329.086 348.947 328.216 349.479 327.346 350.059C326.476 350.639 325.751 350.832 325.171 350.639C324.591 350.349 324.301 349.865 324.301 349.189C324.301 348.512 324.785 347.835 325.751 347.159C328.458 345.322 331.261 343.727 334.161 342.374C335.805 341.6 336.82 340.344 337.206 338.604L339.091 330.339C339.575 328.309 340.831 327.294 342.861 327.294H345.471C346.631 327.294 347.501 327.632 348.081 328.309C348.661 328.985 348.806 329.952 348.516 331.209L347.501 335.414C347.211 337.057 347.84 337.734 349.386 337.444C351.61 337.154 353.736 337.009 355.766 337.009C362.92 337.009 368.768 339.039 373.311 343.099C377.855 347.159 380.126 353.394 380.126 361.804C380.126 368.377 378.918 374.757 376.501 380.944C374.085 387.034 370.895 392.495 366.931 397.329C362.968 402.162 358.618 406.029 353.881 408.929C349.145 411.732 344.408 413.134 339.671 413.134C337.061 413.134 334.596 412.602 332.276 411.539C330.826 410.862 329.956 411.249 329.666 412.699L325.316 431.839C324.833 433.965 324.833 435.367 325.316 436.044C325.896 436.72 327.105 437.204 328.941 437.494L332.711 438.074C334.451 438.364 335.321 438.944 335.321 439.814C335.321 440.974 334.5 441.554 332.856 441.554H306.756ZM333.726 395.154C331.986 404.724 334.065 409.509 339.961 409.509C343.345 409.509 346.776 408.107 350.256 405.304C353.736 402.404 356.975 398.585 359.971 393.849C362.968 389.015 365.385 383.602 367.221 377.609C369.058 371.615 369.976 365.477 369.976 359.194C369.976 352.717 368.575 348.077 365.771 345.274C362.968 342.374 358.86 340.924 353.446 340.924C348.613 340.924 345.858 342.567 345.181 345.854L333.726 395.154Z" fill="white"/>
<defs>
<clipPath id="clip0_7_32">
<rect width="259.549" height="259.549" fill="white" transform="translate(106.225 35)"/>
</clipPath>
</defs>
</svg>
