<svg width="575" height="196" viewBox="0 0 575 196" fill="none" xmlns="http://www.w3.org/2000/svg">
<path fill-rule="evenodd" clip-rule="evenodd" d="M100.5 0C44.9737 0 0 44.9643 0 100.479C0 144.941 28.7681 182.495 68.7169 195.808C73.7419 196.687 75.6262 193.673 75.6262 191.035C75.6262 188.649 75.5006 180.736 75.5006 172.321C50.25 176.968 43.7175 166.167 41.7075 160.515C40.5769 157.626 35.6775 148.709 31.4062 146.322C27.8887 144.438 22.8637 139.791 31.2806 139.666C39.195 139.54 44.8481 146.95 46.7325 149.965C55.7775 165.162 70.2244 160.892 76.0031 158.254C76.8825 151.723 79.5206 147.327 82.41 144.815C60.0487 142.303 36.6825 133.637 36.6825 95.2037C36.6825 84.2766 40.5769 75.2335 46.9838 68.2C45.9788 65.688 42.4612 55.3889 47.9887 41.5731C47.9887 41.5731 56.4056 38.9355 75.6262 51.8722C83.6662 49.6114 92.2088 48.481 100.751 48.481C109.294 48.481 117.836 49.6114 125.876 51.8722C145.097 38.8099 153.514 41.5731 153.514 41.5731C159.041 55.3889 155.524 65.688 154.519 68.2C160.926 75.2335 164.82 84.151 164.82 95.2037C164.82 133.762 141.328 142.303 118.967 144.815C122.61 147.955 125.751 153.984 125.751 163.404C125.751 176.843 125.625 187.644 125.625 191.035C125.625 193.673 127.509 196.813 132.534 195.808C172.232 182.495 201 144.815 201 100.479C201 44.9643 156.026 0 100.5 0Z" fill="black"/>
<path d="M285.039 163.476C280.447 163.476 276.675 161.836 273.723 158.556C270.88 155.276 269.513 150.684 269.623 144.78L269.787 126.576C269.896 120.672 269.568 116.189 268.803 113.128C268.037 110.067 266.616 107.989 264.539 106.896C262.461 105.803 259.4 105.256 255.355 105.256C252.949 105.256 251.145 105.693 249.943 106.568C248.849 107.443 248.084 108.809 247.647 110.668L238.135 150.52C237.588 152.816 237.643 154.401 238.299 155.276C238.955 156.151 240.649 156.807 243.383 157.244L250.599 158.228C252.129 158.337 252.895 158.939 252.895 160.032C252.895 161.344 252.02 162 250.271 162H215.503C213.972 162 213.207 161.453 213.207 160.36C213.207 159.157 214.3 158.392 216.487 158.064L219.767 157.572C222.172 157.244 223.812 156.697 224.687 155.932C225.671 155.057 226.381 153.472 226.819 151.176L249.123 54.744C249.669 52.448 249.669 50.9173 249.123 50.152C248.576 49.3867 247.209 48.7853 245.023 48.348L241.743 47.692C240.321 47.364 239.611 46.7627 239.611 45.888C239.611 44.576 240.595 43.92 242.563 43.92H275.855C282.305 43.92 287.663 45.068 291.927 47.364C296.191 49.66 299.361 52.7213 301.439 56.548C303.625 60.3747 304.719 64.584 304.719 69.176C304.719 74.9707 303.243 80.2187 300.291 84.92C297.339 89.6213 293.457 93.612 288.647 96.892C283.945 100.063 278.861 102.413 273.395 103.944C272.739 104.053 272.356 104.381 272.247 104.928C272.247 105.365 272.575 105.748 273.231 106.076C276.292 107.716 278.369 110.012 279.463 112.964C280.556 115.916 281.103 119.852 281.103 124.772V141.5C281.103 147.513 281.759 151.668 283.071 153.964C284.383 156.151 286.187 157.244 288.483 157.244C289.357 157.244 290.123 157.135 290.779 156.916C291.435 156.588 292.309 156.041 293.403 155.276C294.277 154.511 295.043 154.292 295.699 154.62C296.464 154.948 296.847 155.549 296.847 156.424C296.847 157.955 295.699 159.54 293.403 161.18C291.107 162.711 288.319 163.476 285.039 163.476ZM261.095 101.156C266.561 101.156 271.7 99.68 276.511 96.728C281.321 93.776 285.203 89.7853 288.155 84.756C291.216 79.7267 292.747 74.096 292.747 67.864C292.747 61.7413 291.216 56.9307 288.155 53.432C285.203 49.824 280.009 48.02 272.575 48.02C265.577 48.02 261.532 50.2067 260.439 54.58L251.747 92.136C250.325 98.1493 253.441 101.156 261.095 101.156ZM317.866 163.476C312.071 163.476 307.424 161.235 303.926 156.752C300.427 152.16 298.678 145.709 298.678 137.4C298.678 130.184 299.935 123.023 302.45 115.916C305.074 108.809 308.463 102.359 312.618 96.564C316.772 90.7693 321.31 86.1227 326.23 82.624C331.259 79.1253 336.124 77.376 340.826 77.376C345.964 77.376 349.627 78.6333 351.814 81.148C354.11 83.5533 355.258 86.8333 355.258 90.988C355.258 95.908 353.508 100.828 350.01 105.748C346.62 110.559 341.81 114.877 335.578 118.704C329.455 122.531 322.239 125.373 313.93 127.232C311.524 127.779 310.267 129.145 310.158 131.332C310.048 132.097 309.994 132.917 309.994 133.792C309.994 134.557 309.994 135.323 309.994 136.088C309.994 142.32 311.032 147.021 313.11 150.192C315.296 153.363 318.248 154.948 321.966 154.948C326.12 154.948 330.111 153.035 333.938 149.208C337.874 145.381 341.154 139.969 343.778 132.972C344.106 131.988 344.762 131.496 345.746 131.496C346.402 131.496 346.784 131.769 346.894 132.316C347.112 132.863 347.112 133.519 346.894 134.284C343.395 143.905 339.131 151.176 334.102 156.096C329.182 161.016 323.77 163.476 317.866 163.476ZM311.798 121C311.579 121.765 311.688 122.421 312.126 122.968C312.672 123.405 313.328 123.515 314.094 123.296C320.872 121.437 326.558 118.649 331.15 114.932C335.742 111.105 339.186 106.841 341.482 102.14C343.887 97.4387 345.09 92.8467 345.09 88.364C345.09 83.772 343.286 81.476 339.678 81.476C336.507 81.476 333.063 83.3347 329.346 87.052C325.628 90.7693 322.184 95.6347 319.014 101.648C315.843 107.661 313.438 114.112 311.798 121ZM373.733 163.476C367.72 163.476 362.745 161.016 358.809 156.096C354.873 151.067 352.905 144.671 352.905 136.908C352.905 129.583 354.053 122.421 356.349 115.424C358.755 108.317 361.925 101.921 365.861 96.236C369.907 90.4413 374.335 85.8493 379.145 82.46C384.065 79.0707 388.985 77.376 393.905 77.376C399.153 77.376 403.581 78.7973 407.189 81.64C407.736 82.0773 408.064 82.46 408.173 82.788C408.283 83.0067 408.228 83.5533 408.009 84.428L403.581 105.912C403.253 107.443 402.543 108.208 401.449 108.208C400.247 108.208 399.536 107.388 399.317 105.748L398.497 94.104C398.169 89.0747 397.404 85.7947 396.201 84.264C395.108 82.7333 393.468 81.968 391.281 81.968C388.22 81.968 385.104 83.4987 381.933 86.56C378.763 89.512 375.811 93.5573 373.077 98.696C370.453 103.725 368.321 109.356 366.681 115.588C365.151 121.711 364.385 127.943 364.385 134.284C364.385 148.06 368.868 154.948 377.833 154.948C382.097 154.948 385.924 152.98 389.313 149.044C392.812 145.108 396.037 138.985 398.989 130.676C399.317 129.583 400.083 129.036 401.285 129.036C401.941 129.036 402.324 129.309 402.433 129.856C402.543 130.293 402.433 131.223 402.105 132.644C401.012 138.657 399.044 143.96 396.201 148.552C393.359 153.144 389.969 156.807 386.033 159.54C382.207 162.164 378.107 163.476 373.733 163.476ZM419.257 163.476C415.321 163.476 412.26 161.781 410.073 158.392C407.887 155.003 406.793 150.028 406.793 143.468C406.793 137.236 407.668 131.004 409.417 124.772C411.167 118.431 413.572 112.417 416.633 106.732C419.695 101.047 423.139 96.0173 426.965 91.644C430.901 87.2707 435.001 83.8267 439.265 81.312C443.639 78.688 447.957 77.376 452.221 77.376C454.299 77.376 456.267 77.8133 458.125 78.688C459.984 79.4533 461.515 80.7107 462.717 82.46C463.373 83.444 464.029 83.936 464.685 83.936C465.341 83.936 465.997 83.444 466.653 82.46C467.856 80.7107 468.84 79.6173 469.605 79.18C470.371 78.6333 471.081 78.36 471.737 78.36C473.159 78.36 473.705 79.1253 473.377 80.656L458.781 143.468C457.141 150.575 458.235 154.128 462.061 154.128C464.576 154.128 466.817 152.433 468.785 149.044C470.863 145.655 472.94 140.407 475.017 133.3C475.345 132.097 476.056 131.496 477.149 131.496C477.915 131.496 478.407 131.824 478.625 132.48C478.844 133.136 478.844 133.901 478.625 134.776C476.548 145.053 473.76 152.433 470.261 156.916C466.763 161.289 462.553 163.476 457.633 163.476C453.369 163.476 450.308 161.672 448.449 158.064C446.7 154.456 446.536 149.536 447.957 143.304L450.089 134.284C450.308 133.519 450.144 133.081 449.597 132.972C449.16 132.863 448.777 133.136 448.449 133.792C442.436 144.835 437.079 152.543 432.377 156.916C427.785 161.289 423.412 163.476 419.257 163.476ZM423.357 155.112C425.981 155.112 428.879 153.527 432.049 150.356C435.22 147.185 438.336 143.085 441.397 138.056C444.568 133.027 447.465 127.615 450.089 121.82C452.713 116.025 454.791 110.449 456.321 105.092C457.961 99.7347 458.781 95.1973 458.781 91.48C458.781 84.8107 456.431 81.476 451.729 81.476C448.887 81.476 445.88 82.788 442.709 85.412C439.539 87.9267 436.477 91.3707 433.525 95.744C430.683 100.117 428.059 105.092 425.653 110.668C423.357 116.135 421.499 121.875 420.077 127.888C418.656 133.792 417.945 139.587 417.945 145.272C417.945 149.099 418.383 151.723 419.257 153.144C420.241 154.456 421.608 155.112 423.357 155.112ZM466.593 195.62C465.172 195.62 464.461 195.019 464.461 193.816C464.461 192.723 465.336 192.067 467.085 191.848L469.381 191.52C471.568 191.192 473.208 190.536 474.301 189.552C475.285 188.677 476.051 187.037 476.597 184.632L498.409 90.496C498.628 89.6213 498.464 88.9653 497.917 88.528C497.48 87.9813 496.824 87.9813 495.949 88.528C494.856 89.0747 493.817 89.676 492.833 90.332C491.849 90.8787 490.865 91.48 489.881 92.136C488.897 92.792 488.077 93.0107 487.421 92.792C486.765 92.464 486.437 91.9173 486.437 91.152C486.437 90.3867 486.984 89.6213 488.077 88.856C491.139 86.7787 494.309 84.9747 497.589 83.444C499.448 82.5693 500.596 81.148 501.033 79.18L503.165 69.832C503.712 67.536 505.133 66.388 507.429 66.388H510.381C511.693 66.388 512.677 66.7707 513.333 67.536C513.989 68.3013 514.153 69.3947 513.825 70.816L512.677 75.572C512.349 77.4307 513.06 78.196 514.809 77.868C517.324 77.54 519.729 77.376 522.025 77.376C530.116 77.376 536.731 79.672 541.869 84.264C547.008 88.856 549.577 95.908 549.577 105.42C549.577 112.855 548.211 120.071 545.477 127.068C542.744 133.956 539.136 140.133 534.653 145.6C530.171 151.067 525.251 155.44 519.893 158.72C514.536 161.891 509.179 163.476 503.821 163.476C500.869 163.476 498.081 162.875 495.457 161.672C493.817 160.907 492.833 161.344 492.505 162.984L487.585 184.632C487.039 187.037 487.039 188.623 487.585 189.388C488.241 190.153 489.608 190.7 491.685 191.028L495.949 191.684C497.917 192.012 498.901 192.668 498.901 193.652C498.901 194.964 497.972 195.62 496.113 195.62H466.593ZM497.097 143.14C495.129 153.964 497.48 159.376 504.149 159.376C507.976 159.376 511.857 157.791 515.793 154.62C519.729 151.34 523.392 147.021 526.781 141.664C530.171 136.197 532.904 130.075 534.981 123.296C537.059 116.517 538.097 109.575 538.097 102.468C538.097 95.1427 536.512 89.8947 533.341 86.724C530.171 83.444 525.524 81.804 519.401 81.804C513.935 81.804 510.819 83.6627 510.053 87.38L497.097 143.14Z" fill="black"/>
</svg>
