<svg width="119" height="107" viewBox="0 0 119 107" fill="none" xmlns="http://www.w3.org/2000/svg">
<path fill-rule="evenodd" clip-rule="evenodd" d="M20.3934 0C9.12604 0 0 9.15626 0 20.4609C0 29.5149 5.83761 37.1621 13.944 39.8732C14.9636 40.0522 15.346 39.4384 15.346 38.9013C15.346 38.4154 15.3205 36.8041 15.3205 35.0905C10.1967 36.0368 8.87112 33.8372 8.46325 32.6863C8.23383 32.0981 7.23965 30.2822 6.37293 29.7962C5.65916 29.4126 4.63949 28.4662 6.34744 28.4407C7.95342 28.4151 9.10055 29.9241 9.48292 30.5379C11.3183 33.6326 14.2499 32.763 15.4225 32.2259C15.6009 30.896 16.1363 30.0008 16.7226 29.4893C12.185 28.9778 7.44358 27.213 7.44358 19.3867C7.44358 17.1616 8.23383 15.3201 9.53391 13.8878C9.32997 13.3763 8.6162 11.2791 9.73784 8.4657C9.73784 8.4657 11.4458 7.9286 15.346 10.5629C16.9775 10.1026 18.7109 9.87239 20.4444 9.87239C22.1778 9.87239 23.9112 10.1026 25.5427 10.5629C29.4429 7.90303 31.1509 8.4657 31.1509 8.4657C32.2725 11.2791 31.5588 13.3763 31.3548 13.8878C32.6549 15.3201 33.4451 17.136 33.4451 19.3867C33.4451 27.2386 28.6782 28.9778 24.1407 29.4893C24.8799 30.1287 25.5172 31.3563 25.5172 33.2746C25.5172 36.0112 25.4917 38.2108 25.4917 38.9013C25.4917 39.4384 25.8741 40.0778 26.8938 39.8732C34.9492 37.1621 40.7868 29.4893 40.7868 20.4609C40.7868 9.15626 31.6607 0 20.3934 0Z" fill="white"/>
<path d="M64.6502 32.7081C62.5 32.7081 61.1283 31.2944 60.5351 28.467L59.6825 24.3374C59.4106 22.9981 59.1016 21.9812 58.7556 21.2867C58.4343 20.5923 57.9771 20.121 57.3839 19.873C56.8155 19.625 56.0246 19.501 55.0113 19.501C54.6653 19.501 54.3934 19.6002 54.1957 19.7986C53.998 19.9722 53.8991 20.1954 53.8991 20.4682V29.7691C53.8991 30.2899 53.998 30.6496 54.1957 30.848C54.3934 31.0216 54.8383 31.1704 55.5303 31.2944L56.902 31.5176C57.1739 31.5672 57.3098 31.7037 57.3098 31.9269C57.3098 32.2245 57.1244 32.3733 56.7537 32.3733H49.2279C48.8572 32.3733 48.6718 32.2369 48.6718 31.9641C48.6718 31.7409 48.8325 31.592 49.1538 31.5176L50.0065 31.3688C50.5255 31.2696 50.8591 31.1332 51.0074 30.9596C51.1804 30.786 51.2669 30.4387 51.2669 29.9179V8.04232C51.2669 7.52147 51.1804 7.17424 51.0074 7.00062C50.8591 6.82701 50.5255 6.6906 50.0065 6.59139L49.1538 6.44257C48.8325 6.36817 48.6718 6.21935 48.6718 5.99613C48.6718 5.72331 48.8572 5.5869 49.2279 5.5869H56.7537C58.2119 5.5869 59.5094 5.87212 60.6463 6.44257C61.7832 7.01303 62.673 7.8067 63.3156 8.82359C63.9582 9.81568 64.2795 10.969 64.2795 12.2835C64.2795 13.846 63.8099 15.2598 62.8707 16.5247C61.9315 17.7648 60.7452 18.6453 59.3117 19.1661C59.1387 19.2157 59.0399 19.3025 59.0151 19.4265C59.0151 19.5258 59.1016 19.6126 59.2747 19.687C60.0655 20.059 60.6834 20.5798 61.1283 21.2495C61.5979 21.9192 61.9562 22.8121 62.2034 23.9282L63.019 27.7229C63.2909 29.0126 63.6122 29.9303 63.9829 30.4759C64.3536 31.0216 64.8232 31.2944 65.3917 31.2944C65.5894 31.2944 65.7624 31.2696 65.9107 31.22C66.0837 31.1456 66.2938 31.0216 66.5409 30.848C66.7386 30.724 66.924 30.6992 67.097 30.7736C67.27 30.8232 67.3565 30.9472 67.3565 31.1456C67.3565 31.5672 67.0846 31.9393 66.5409 32.2617C65.9972 32.5593 65.3669 32.7081 64.6502 32.7081ZM56.383 18.5709C58.0636 18.5709 59.3364 18.0128 60.2015 16.8967C61.0665 15.7558 61.499 14.2429 61.499 12.3579C61.499 10.5225 60.9924 9.09641 59.979 8.07952C58.9904 7.03783 57.6187 6.51698 55.864 6.51698C54.5541 6.51698 53.8991 7.01303 53.8991 8.00512V16.5247C53.8991 17.8888 54.7271 18.5709 56.383 18.5709Z" fill="white"/>
<path d="M72.4459 32.7081C71.2596 32.7081 70.1968 32.3113 69.2576 31.5176C68.3185 30.724 67.5647 29.6079 66.9962 28.1693C66.4525 26.706 66.1806 25.0194 66.1806 23.1097C66.1806 21.1503 66.4648 19.4265 67.0333 17.9384C67.6017 16.4503 68.3803 15.2846 69.3689 14.4413C70.3575 13.598 71.4573 13.1764 72.6683 13.1764C74.1265 13.1764 75.3005 13.784 76.1903 14.9993C77.1047 16.1899 77.5619 18.1368 77.5619 20.8403C77.5619 21.6587 77.253 22.068 76.6351 22.068H69.5913C69.097 22.068 68.8498 22.3532 68.8498 22.9237C68.8498 25.5527 69.2329 27.5245 69.9991 28.839C70.7653 30.1535 71.7415 30.8108 72.9278 30.8108C73.867 30.8108 74.6332 30.4759 75.2264 29.8063C75.8195 29.1366 76.3015 28.0081 76.6722 26.4208C76.7463 26.148 76.907 26.0115 77.1541 26.0115C77.4507 26.0115 77.5619 26.2596 77.4878 26.7556C77.0924 28.963 76.4621 30.5131 75.5971 31.406C74.732 32.2741 73.6817 32.7081 72.4459 32.7081ZM69.4801 21.1379H73.2244C74.4108 21.1379 75.0039 20.5178 75.0039 19.2777C75.0039 17.6656 74.8062 16.4007 74.4108 15.483C74.0153 14.5653 73.4221 14.1065 72.6313 14.1065C71.6674 14.1065 70.8518 14.6645 70.1845 15.7806C69.5419 16.8967 69.1217 18.4841 68.924 20.5426C68.8746 20.9395 69.0599 21.1379 69.4801 21.1379Z" fill="white"/>
<path d="M84.4378 32.7081C83.3503 32.7081 82.3617 32.3485 81.472 31.6292C80.6069 30.8852 79.9149 29.8311 79.3959 28.467C78.8769 27.1028 78.6174 25.4783 78.6174 23.5933C78.6174 21.4851 78.9263 19.6498 79.5442 18.0872C80.1868 16.5247 81.0518 15.3218 82.1393 14.4785C83.2267 13.6104 84.4378 13.1764 85.7724 13.1764C86.9093 13.1764 87.799 13.3996 88.4416 13.846C88.6888 14.0197 88.8124 14.2925 88.8124 14.6645L88.8865 19.2033C88.8865 19.5754 88.7382 19.7614 88.4416 19.7614C88.1698 19.7614 87.9968 19.6002 87.9226 19.2777C87.5766 17.9136 87.243 16.8595 86.9217 16.1154C86.6004 15.3714 86.2667 14.8629 85.9207 14.5901C85.5747 14.2925 85.1916 14.1437 84.7714 14.1437C84.2771 14.1437 83.7581 14.4289 83.2144 14.9993C82.6954 15.5698 82.2505 16.4999 81.8798 17.7896C81.5337 19.0545 81.3607 20.7287 81.3607 22.812C81.3607 25.4659 81.6944 27.4625 82.3617 28.8018C83.0537 30.1411 83.9435 30.8108 85.0309 30.8108C85.896 30.8108 86.6127 30.4511 87.1812 29.7319C87.7743 29.0126 88.281 27.7105 88.7011 25.8255C88.7753 25.5527 88.9236 25.4163 89.146 25.4163C89.4426 25.4163 89.5538 25.6643 89.4797 26.1604C89.2078 27.8965 88.8247 29.2482 88.3304 30.2155C87.8608 31.158 87.2924 31.8153 86.6251 32.1873C85.9825 32.5345 85.2534 32.7081 84.4378 32.7081Z" fill="white"/>
<path d="M94.0347 32.7081C92.9967 32.7081 92.144 32.3857 91.4767 31.7409C90.8094 31.0712 90.4757 30.1907 90.4757 29.0994C90.4757 28.0329 90.8094 27.0284 91.4767 26.0859C92.144 25.1187 93.0584 24.2506 94.22 23.4817C95.3817 22.7128 96.7039 22.0928 98.1868 21.6215C98.5081 21.5223 98.6688 21.3115 98.6688 20.9891V17.6036C98.6688 16.4131 98.4834 15.5698 98.1127 15.0738C97.742 14.5529 97.2353 14.2925 96.5927 14.2925C95.9748 14.2925 95.4064 14.5777 94.8874 15.1482C94.3931 15.6938 94.0347 16.6239 93.8123 17.9384C93.6887 18.7321 93.4168 19.3149 92.9967 19.687C92.6012 20.0342 92.1934 20.2078 91.7733 20.2078C91.0812 20.2078 90.7352 19.8606 90.7352 19.1661C90.7352 18.4469 90.9329 17.74 91.3284 17.0455C91.7485 16.3263 92.2923 15.6814 92.9596 15.111C93.6269 14.5157 94.356 14.0445 95.1469 13.6972C95.9378 13.35 96.7286 13.1764 97.5195 13.1764C99.9663 13.1764 101.19 14.6025 101.19 17.4548V28.839C101.19 29.8807 101.449 30.4015 101.968 30.4015C102.29 30.4015 102.586 30.1907 102.858 29.7691C103.13 29.3226 103.266 28.5786 103.266 27.5369C103.266 27.14 103.426 26.9416 103.748 26.9416C104.044 26.9416 104.193 27.1524 104.193 27.5741C104.193 29.3846 103.871 30.6992 103.229 31.5176C102.611 32.3113 101.906 32.7081 101.116 32.7081C100.522 32.7081 100.053 32.4725 99.7068 32.0013C99.3608 31.5052 99.126 30.9224 99.0024 30.2527C98.9777 30.0047 98.8665 29.8807 98.6688 29.8807C98.4958 29.8559 98.3228 29.9675 98.1498 30.2155C97.5566 31.034 96.9511 31.654 96.3332 32.0757C95.7153 32.4973 94.9492 32.7081 94.0347 32.7081ZM95.0357 30.9968C95.6782 30.9968 96.2714 30.7736 96.8151 30.3271C97.3589 29.8559 97.8038 29.2358 98.1498 28.467C98.4958 27.6981 98.6688 26.83 98.6688 25.8627V23.1469C98.6688 22.6756 98.4093 22.5392 97.8903 22.7376C96.3826 23.2833 95.2087 24.0398 94.3683 25.007C93.5527 25.9495 93.1449 27.0904 93.1449 28.4298C93.1449 30.1411 93.7752 30.9968 95.0357 30.9968Z" fill="white"/>
<path d="M104.653 40C104.282 40 104.097 39.8636 104.097 39.5908C104.097 39.3179 104.257 39.1691 104.579 39.1443L105.098 39.0699C105.617 38.9955 105.95 38.8467 106.099 38.6235C106.272 38.4003 106.358 38.0282 106.358 37.5074V17.3804C106.358 16.9339 106.284 16.6363 106.136 16.4875C106.012 16.3139 105.777 16.2023 105.431 16.1526L104.653 16.041C104.332 16.0162 104.171 15.8798 104.171 15.6318C104.171 15.4334 104.369 15.297 104.764 15.2226C105.53 15.0986 106.111 14.9001 106.506 14.6273C106.927 14.3545 107.359 14.0197 107.804 13.6228C108.026 13.3996 108.212 13.288 108.36 13.288C108.583 13.288 108.694 13.4368 108.694 13.7344V14.8877C108.694 15.0614 108.768 15.1854 108.916 15.2598C109.064 15.3094 109.238 15.235 109.435 15.0365L109.843 14.6273C110.337 14.1313 110.844 13.7716 111.363 13.5484C111.882 13.3004 112.475 13.1764 113.143 13.1764C114.279 13.1764 115.28 13.5608 116.145 14.3297C117.035 15.0738 117.727 16.1154 118.221 17.4548C118.74 18.7941 119 20.369 119 22.1796C119 24.2382 118.679 26.0611 118.036 27.6485C117.394 29.2358 116.504 30.4759 115.367 31.3688C114.255 32.2617 112.969 32.7081 111.511 32.7081C110.77 32.7081 110.115 32.5717 109.546 32.2989C109.102 32.1005 108.879 32.2369 108.879 32.7081V37.5074C108.879 38.0282 108.953 38.3755 109.102 38.5491C109.275 38.7475 109.621 38.8839 110.14 38.9583L111.511 39.1443C111.783 39.1939 111.919 39.3303 111.919 39.5536C111.919 39.8512 111.734 40 111.363 40H104.653ZM111.623 31.7781C113.007 31.7781 114.119 30.9596 114.959 29.3226C115.824 27.6857 116.257 25.4783 116.257 22.7004C116.257 20.1458 115.886 18.1988 115.144 16.8595C114.403 15.5202 113.353 14.8505 111.993 14.8505C111.153 14.8505 110.424 15.1978 109.806 15.8922C109.188 16.5867 108.879 17.554 108.879 18.7941V28.1693C108.879 29.2854 109.126 30.1659 109.621 30.8108C110.14 31.4556 110.807 31.7781 111.623 31.7781Z" fill="white"/>
<path d="M2.02725 106C1.12725 106 0.677246 105.675 0.677246 105.025C0.677246 104.675 0.852246 104.225 1.20225 103.675L10.2022 89.95C13.9522 84.25 16.6522 79.35 18.3022 75.25C20.0022 71.1 20.8522 67.3 20.8522 63.85C20.8522 60.75 20.2022 58.375 18.9022 56.725C17.6522 55.075 15.8272 54.25 13.4272 54.25C11.0272 54.25 8.85225 55.1 6.90225 56.8C4.95225 58.45 3.70225 61.1 3.15225 64.75C3.00225 65.55 2.62725 65.95 2.02725 65.95C1.27725 65.95 0.952246 65.45 1.05225 64.45C1.40225 61.15 2.25225 58.55 3.60225 56.65C5.00225 54.7 6.67725 53.325 8.62725 52.525C10.5772 51.675 12.5522 51.25 14.5522 51.25C18.0022 51.25 20.8022 52.3 22.9522 54.4C25.1522 56.45 26.2522 59.325 26.2522 63.025C26.2522 65.625 25.6272 68.3 24.3772 71.05C23.1772 73.75 21.5022 76.725 19.3522 79.975C17.2522 83.175 14.8272 86.85 12.0772 91L6.22725 99.85C5.92725 100.3 5.90225 100.7 6.15225 101.05C6.45225 101.35 6.85225 101.5 7.35225 101.5H15.3772C17.2772 101.5 18.8522 101.3 20.1022 100.9C21.3522 100.45 22.3522 99.65 23.1022 98.5C23.8522 97.3 24.4272 95.6 24.8272 93.4L25.5022 89.875C25.6522 89.225 26.0272 88.9 26.6272 88.9C27.3272 88.9 27.6272 89.325 27.5272 90.175L26.6272 104.275C26.5272 105.425 25.9022 106 24.7522 106H2.02725Z" fill="white"/>
<path d="M45.2495 106.675C42.3495 106.675 39.7995 105.45 37.5995 103C35.3995 100.55 33.6995 97.225 32.4995 93.025C31.2995 88.825 30.6995 84.125 30.6995 78.925C30.6995 73.725 31.2995 69.05 32.4995 64.9C33.6995 60.7 35.3995 57.375 37.5995 54.925C39.7995 52.475 42.3495 51.25 45.2495 51.25C48.1495 51.25 50.6745 52.475 52.8245 54.925C55.0245 57.375 56.7245 60.7 57.9245 64.9C59.1745 69.05 59.7995 73.725 59.7995 78.925C59.7995 84.125 59.1745 88.825 57.9245 93.025C56.7245 97.225 55.0245 100.55 52.8245 103C50.6745 105.45 48.1495 106.675 45.2495 106.675ZM45.2495 104.65C48.3995 104.65 50.6995 102.525 52.1495 98.275C53.6495 94.025 54.3995 87.575 54.3995 78.925C54.3995 70.275 53.6495 63.85 52.1495 59.65C50.6995 55.4 48.3995 53.275 45.2495 53.275C42.0995 53.275 39.7745 55.4 38.2745 59.65C36.8245 63.85 36.0995 70.275 36.0995 78.925C36.0995 87.575 36.8245 94.025 38.2745 98.275C39.7745 102.525 42.0995 104.65 45.2495 104.65Z" fill="white"/>
<path d="M63.4071 106C62.5071 106 62.0571 105.675 62.0571 105.025C62.0571 104.675 62.2321 104.225 62.5821 103.675L71.5821 89.95C75.3321 84.25 78.0321 79.35 79.6821 75.25C81.3821 71.1 82.2321 67.3 82.2321 63.85C82.2321 60.75 81.5821 58.375 80.2821 56.725C79.0321 55.075 77.2071 54.25 74.8071 54.25C72.4071 54.25 70.2321 55.1 68.2821 56.8C66.3321 58.45 65.0821 61.1 64.5321 64.75C64.3821 65.55 64.0071 65.95 63.4071 65.95C62.6571 65.95 62.3321 65.45 62.4321 64.45C62.7821 61.15 63.6321 58.55 64.9821 56.65C66.3821 54.7 68.0571 53.325 70.0071 52.525C71.9571 51.675 73.9321 51.25 75.9321 51.25C79.3821 51.25 82.1821 52.3 84.3321 54.4C86.5321 56.45 87.6321 59.325 87.6321 63.025C87.6321 65.625 87.0071 68.3 85.7571 71.05C84.5571 73.75 82.8821 76.725 80.7321 79.975C78.6321 83.175 76.2071 86.85 73.4571 91L67.6071 99.85C67.3071 100.3 67.2821 100.7 67.5321 101.05C67.8321 101.35 68.2321 101.5 68.7321 101.5H76.7571C78.6571 101.5 80.2321 101.3 81.4821 100.9C82.7321 100.45 83.7321 99.65 84.4821 98.5C85.2321 97.3 85.8071 95.6 86.2071 93.4L86.8821 89.875C87.0321 89.225 87.4071 88.9 88.0071 88.9C88.7071 88.9 89.0071 89.325 88.9071 90.175L88.0071 104.275C87.9071 105.425 87.2821 106 86.1321 106H63.4071Z" fill="white"/>
<path d="M102.129 106C101.379 106 101.004 105.725 101.004 105.175C101.004 104.625 101.329 104.325 101.979 104.275L105.204 103.825C106.254 103.675 106.929 103.425 107.229 103.075C107.579 102.675 107.754 102 107.754 101.05V91.3C107.754 90.6 107.404 90.25 106.704 90.25H91.5544C90.6044 90.25 90.1294 89.825 90.1294 88.975C90.1294 88.725 90.1794 88.475 90.2794 88.225C90.4294 87.925 90.6044 87.55 90.8044 87.1L108.804 52.75C109.004 52.25 109.404 52 110.004 52H111.504C112.404 52 112.629 52.425 112.179 53.275L94.1794 85C93.8294 85.7 94.0294 86.05 94.7794 86.05H106.704C107.404 86.05 107.754 85.7 107.754 85V70.3C107.754 69.85 108.004 69.45 108.504 69.1L111.279 67.525C111.629 67.325 111.929 67.3 112.179 67.45C112.429 67.55 112.554 67.8 112.554 68.2V85C112.554 85.7 112.904 86.05 113.604 86.05H116.904C117.504 86.05 117.804 86.35 117.804 86.95V89.35C117.804 89.95 117.504 90.25 116.904 90.25H113.604C112.904 90.25 112.554 90.6 112.554 91.3V101.05C112.554 102.1 112.704 102.8 113.004 103.15C113.354 103.5 114.054 103.775 115.104 103.975L116.829 104.275C117.479 104.425 117.804 104.725 117.804 105.175C117.804 105.725 117.429 106 116.679 106H102.129Z" fill="white"/>
</svg>
